# xmcd CD database file
#
# Track frame offsets:
#	164
#	17587
#	33641
#	52214
#	67535
#	79215
#	96009
#	115145
#	129053
#	143742
#	161916
#	178742
#	195344
#
# Disc length: 3370 seconds
#
# Revision: 5
# Processed by: cddbd v1.5.2PL0 Copyright (c) Steve Scherf et al.
# Submitted via: CDex 1.70
#
DISCID=a50d280d
DTITLE=Seasick Steve - You Can't Teach an Old Dog New Tricks
DYEAR=2011
DGENRE=Blues
TTITLE0=Treasures
TTITLE1=You Can't Teach an Old Dog New Tricks
TTITLE2=Burnin' Up
TTITLE3=Don't Know Why She Loves Me but She Do
TTITLE4=Have Mercy on the Lonely
TTITLE5=Whiskey Ballad
TTITLE6=Back in the Doghouse
TTITLE7=Underneath a Blue and Cloudless Sky
TTITLE8=What a Way to Go
TTITLE9=Party
TTITLE10=Days Gone
TTITLE11=It's a Long Long Way
TTITLE12=Seasick Steve Reminiscing [Spoken]
EXTD=Location:  -  UPC: 5414939118821 - Catalogue number: PIASR 515 CDX - Label: Play It Again Sam - ASIN: B004UJ2KZK - Release Date: 2011 05 30 - Discogs: m344556 - MUSICBRAINZ_ALBUMID:  - AMG: r2193263,p859667 - YEAR: 2011
EXTT0=
EXTT1=
EXTT2=
EXTT3=
EXTT4=
EXTT5=
EXTT6=
EXTT7=
EXTT8=
EXTT9=
EXTT10=
EXTT11=
EXTT12=
PLAYORDER=
